<?xml version="1.0" standalone="no"?>
<!DOCTYPE svg PUBLIC "-//W3C//DTD SVG 20010904//EN"
 "http://www.w3.org/TR/2001/REC-SVG-20010904/DTD/svg10.dtd">
<svg version="1.0" xmlns="http://www.w3.org/2000/svg"
 width="60" height="60" viewBox="0 0 474.000000 474.000000"
 preserveAspectRatio="xMidYMid meet">

<g transform="translate(0.000000,474.000000) scale(0.100000,-0.100000)"
fill="#000000" stroke="none">
<path d="M2355 4461 c-25 -12 -196 -171 -465 -431 -470 -457 -984 -956 -1009
-981 -9 -9 -180 -174 -381 -368 -522 -505 -500 -480 -500 -554 0 -48 3 -55 43
-94 60 -57 94 -64 312 -63 101 1 189 -1 195 -5 7 -4 10 -262 10 -799 l0 -793
23 -33 c12 -19 38 -43 57 -54 34 -20 51 -21 620 -24 607 -3 632 -2 684 39 58
46 57 29 62 667 l6 587 346 0 347 0 5 -595 5 -595 23 -33 c50 -70 23 -67 662
-67 563 0 576 0 615 21 25 13 47 36 62 64 l23 43 0 789 0 788 68 1 c37 0 153
1 257 2 214 2 229 6 284 76 25 31 31 48 31 85 0 26 -6 54 -12 63 -22 28 -1793
1829 -2063 2097 -194 193 -222 208 -310 167z m1159 -1484 c362 -366 658 -669
657 -673 0 -5 -65 -11 -143 -14 -131 -5 -146 -7 -177 -29 -18 -13 -42 -42 -52
-65 -18 -39 -19 -82 -19 -828 l0 -788 -375 0 c-206 0 -375 3 -376 8 0 4 -2
269 -5 590 -4 647 -2 625 -71 672 l-37 25 -562 0 c-553 0 -563 0 -590 -21 -15
-11 -37 -33 -48 -48 -21 -27 -21 -41 -26 -624 l-5 -597 -401 -3 -401 -2 -6
177 c-3 98 -5 455 -4 793 1 592 0 617 -18 655 -31 63 -80 85 -192 85 -51 0
-93 4 -93 8 0 5 35 42 77 82 143 136 327 313 508 489 99 96 239 231 310 300
145 140 342 331 705 685 l244 239 221 -225 c121 -125 516 -525 879 -891z"/>
</g>
</svg>
