<?xml version="1.0" standalone="no"?>
<!DOCTYPE svg PUBLIC "-//W3C//DTD SVG 20010904//EN"
 "http://www.w3.org/TR/2001/REC-SVG-20010904/DTD/svg10.dtd">
<svg version="1.0" xmlns="http://www.w3.org/2000/svg"
 width="60" height="60" viewBox="0 0 474.000000 474.000000"
 preserveAspectRatio="xMidYMid meet">

<g transform="translate(0.000000,474.000000) scale(0.100000,-0.100000)"
fill="#000000" stroke="none">
<path d="M156 4245 c-45 -16 -96 -62 -122 -111 -10 -19 -22 -34 -26 -34 -5 0
-8 -29 -8 -65 0 -54 5 -73 31 -116 36 -61 59 -83 119 -112 40 -19 66 -22 218
-25 94 -2 172 -7 172 -10 2 -28 -525 -3148 -532 -3150 -4 -2 -8 -27 -8 -55 0
-48 3 -54 33 -74 30 -21 45 -23 166 -23 155 0 182 9 199 67 6 21 79 294 162
608 83 314 164 617 180 675 15 58 58 221 96 363 l68 257 1015 0 c799 0 1021 3
1041 13 38 19 55 61 40 98 -7 16 -22 35 -34 42 -16 9 -253 12 -1018 10 -549 0
-998 2 -998 5 0 7 70 276 99 382 10 36 24 86 31 113 l13 47 1282 0 1283 0 14
-57 c41 -156 91 -347 113 -428 14 -49 52 -191 84 -315 33 -124 153 -574 266
-1000 113 -426 211 -792 216 -812 15 -58 44 -68 194 -68 97 0 135 4 162 16
l34 17 -4 76 c-3 42 -27 207 -55 366 -41 233 -447 2659 -468 2796 l-5 37 173
4 c150 3 179 6 218 25 49 22 106 73 115 104 4 10 11 19 16 19 14 0 11 178 -3
197 -43 55 -111 113 -145 122 -26 8 -708 11 -2213 11 -1824 -1 -2181 -3 -2214
-15z m4404 -165 c25 -25 27 -86 3 -112 -15 -17 -96 -18 -2183 -18 -2050 0
-2169 1 -2188 18 -32 27 -33 81 -2 112 20 20 33 20 2185 20 2152 0 2165 0
2185 -20z m-422 -847 c51 -302 168 -1005 262 -1563 93 -558 170 -1021 170
-1028 0 -9 -12 -12 -42 -10 -34 2 -43 7 -49 28 -8 26 -133 502 -334 1270 -37
140 -104 397 -150 570 -46 173 -109 412 -141 530 -31 118 -63 227 -70 241 -7
15 -28 32 -45 38 -23 8 -415 11 -1366 11 -1381 0 -1383 0 -1407 -38 -6 -10
-271 -1000 -380 -1422 -31 -118 -65 -246 -75 -285 -11 -38 -54 -203 -97 -365
-42 -162 -93 -358 -114 -435 l-37 -140 -42 -3 c-22 -2 -41 1 -41 6 0 6 11 77
25 159 127 765 247 1487 360 2159 74 441 135 806 135 813 0 8 425 11 1673 11
l1674 0 91 -547z"/>
<path d="M3237 2602 c-81 -21 -98 -113 -27 -149 30 -15 335 -18 374 -3 37 14
59 53 51 90 -12 54 -34 60 -219 63 -91 1 -172 1 -179 -1z"/>
</g>
</svg>
