<?xml version="1.0" standalone="no"?>
<!DOCTYPE svg PUBLIC "-//W3C//DTD SVG 20010904//EN"
 "http://www.w3.org/TR/2001/REC-SVG-20010904/DTD/svg10.dtd">
<svg 
version="1.0"
 xmlns="http://www.w3.org/2000/svg"
 width="51"
  height="51" 
  viewBox="0 0 512.000000 512.000000"
 preserveAspectRatio="xMidYMid meet">

<g transform="translate(0.000000,512.000000) scale(0.100000,-0.100000)"
fill="#000000" stroke="none">
<path d="M2424 5100 c-41 -21 -81 -75 -203 -275 l-43 -70 -161 -39 c-204 -48
-241 -66 -274 -130 -19 -36 -19 -116 1 -153 8 -15 64 -87 125 -159 l110 -131
-11 -174 c-6 -96 -8 -191 -4 -211 14 -73 84 -128 163 -128 22 0 101 26 199 65
89 36 169 65 176 65 7 0 85 -30 173 -66 141 -58 166 -65 212 -62 58 5 113 40
138 88 18 35 19 134 4 303 l-10 118 111 132 c62 73 119 145 127 161 20 38 20
114 0 152 -33 63 -68 81 -267 129 -119 28 -160 42 -175 60 -11 12 -59 86 -108
163 -76 122 -93 143 -130 161 -54 26 -101 27 -153 1z m124 -555 c47 -73 83
-99 162 -116 86 -19 85 -18 30 -84 -61 -72 -73 -113 -64 -206 4 -42 3 -69 -3
-69 -5 0 -37 11 -71 25 -34 14 -80 25 -102 25 -22 0 -68 -11 -102 -25 -34 -14
-66 -25 -71 -25 -6 0 -7 27 -3 69 9 93 -3 134 -64 206 -55 66 -56 65 30 84 79
16 115 43 162 116 23 36 45 65 49 65 4 0 25 -29 47 -65z"/>
<path d="M1470 3563 c-37 -14 -74 -49 -91 -87 -17 -38 -19 -72 -19 -413 l0
-373 -607 -2 -608 -3 -33 -23 c-18 -13 -41 -41 -52 -62 -20 -38 -20 -64 -20
-1250 0 -1006 2 -1216 14 -1243 16 -39 61 -82 99 -96 20 -8 751 -11 2408 -11
1998 0 2385 2 2412 14 39 16 82 61 96 99 15 40 15 1845 0 1884 -13 35 -45 70
-84 91 -27 15 -94 17 -627 20 l-598 3 0 662 c0 624 -2 664 -19 703 -10 23 -34
52 -52 65 l-34 24 -1085 2 c-597 1 -1092 -1 -1100 -4z m1950 -1004 c0 -659 0
-672 21 -708 11 -20 36 -48 56 -61 l37 -25 603 -3 603 -3 -2 -707 -3 -707
-2175 0 -2175 0 -3 1003 -2 1002 592 0 c557 0 596 2 634 19 23 10 52 34 65 52
l24 34 3 388 3 387 859 0 860 0 0 -671z"/>
<path d="M2343 2890 c-61 -37 -80 -115 -43 -175 21 -34 73 -65 109 -65 21 0
21 -3 21 -213 0 -187 2 -216 18 -246 20 -38 73 -71 112 -71 39 0 92 33 112 71
16 30 18 62 18 322 0 321 -3 339 -65 377 -47 29 -234 29 -282 0z"/>
<path d="M830 1513 c-90 -29 -129 -125 -79 -194 35 -50 65 -59 199 -59 l120 0
0 -60 0 -60 -130 0 -129 0 -41 -38 -40 -39 0 -233 0 -233 40 -39 41 -38 210 0
c234 0 251 4 288 63 26 43 27 83 1 124 -35 58 -61 68 -197 72 l-123 3 0 48 0
48 123 3 c136 4 162 14 197 72 18 29 20 52 20 248 0 208 -1 217 -23 250 -41
62 -69 69 -277 68 -102 0 -192 -3 -200 -6z"/>
<path d="M3922 1513 c-13 -2 -38 -20 -57 -39 -31 -30 -35 -41 -35 -86 0 -45 4
-54 39 -89 l39 -39 131 0 131 0 0 -60 0 -60 -126 0 c-99 0 -132 -4 -154 -16
-39 -24 -60 -65 -60 -118 0 -38 5 -51 34 -79 40 -40 70 -47 209 -47 l97 0 0
-50 0 -50 -97 0 c-139 0 -169 -7 -209 -47 -29 -28 -34 -41 -34 -79 0 -53 21
-94 60 -118 24 -13 61 -16 235 -16 191 0 210 2 240 20 64 40 65 46 65 477 0
427 -1 431 -63 477 -26 19 -43 21 -225 23 -108 0 -207 -1 -220 -4z"/>
</g>
</svg>
