<?xml version="1.0" standalone="no"?>
<!DOCTYPE svg PUBLIC "-//W3C//DTD SVG 20010904//EN"
 "http://www.w3.org/TR/2001/REC-SVG-20010904/DTD/svg10.dtd">
<svg 
    version="1.0" 
    xmlns="http://www.w3.org/2000/svg"
    width="40" 
    height="40" 
    viewBox="0 0 279.000000 279.000000"
    preserveAspectRatio="xMidYMid meet">

<g transform="translate(0.000000,279.000000) 
scale(0.100000,-0.100000)"
fill="#000000"
 stroke="none">
<path d="M895 2520 c-320 -47 -612 -257 -755 -540 -153 -305 -142 -663 31
-947 45 -76 146 -202 166 -210 7 -3 13 -11 13 -18 0 -7 -42 -73 -93 -146 -52
-74 -96 -142 -100 -152 -9 -25 8 -63 37 -82 25 -16 36 -14 312 65 274 79 287
81 332 70 74 -19 259 -24 353 -11 223 33 422 133 580 290 124 124 215 280 261
448 32 114 32 382 0 496 -105 380 -419 664 -811 732 -87 16 -240 18 -326 5z
m295 -151 c352 -56 645 -339 709 -684 16 -85 13 -234 -5 -322 -79 -383 -438
-672 -836 -673 -46 0 -128 7 -183 16 l-100 17 -175 -50 c-96 -28 -176 -49
-178 -48 -2 2 21 39 52 83 77 110 76 120 -20 213 -129 125 -194 231 -239 386
-137 471 169 958 665 1058 80 16 224 18 310 4z"/>
<path d="M980 2135 c-143 -44 -256 -190 -262 -339 -2 -42 1 -51 25 -72 57 -49
108 -15 126 81 15 81 53 133 120 168 152 77 330 -28 331 -196 0 -122 -83 -206
-224 -226 -75 -11 -95 -20 -130 -62 -25 -29 -26 -35 -26 -155 0 -111 2 -126
20 -144 30 -30 83 -27 109 6 18 22 21 41 21 114 l0 87 53 7 c97 13 201 74 256
152 119 164 85 395 -75 516 -94 71 -235 96 -344 63z"/>
<path d="M966 1069 c-50 -40 -23 -129 40 -129 58 0 92 45 73 98 -9 28 -44 52
-73 52 -7 0 -25 -9 -40 -21z"/>
<path d="M2071 2059 c-26 -28 -28 -80 -3 -102 9 -8 48 -27 86 -41 278 -105
456 -365 456 -666 0 -197 -67 -355 -212 -503 -56 -57 -88 -97 -88 -111 0 -11
18 -54 39 -94 21 -39 35 -72 31 -72 -4 0 -65 21 -135 46 -97 35 -137 45 -164
41 -20 -3 -67 -11 -106 -18 -106 -18 -249 -6 -331 27 -76 30 -109 26 -133 -17
-33 -59 8 -102 134 -141 58 -19 94 -22 210 -23 77 0 163 6 192 12 52 13 53 12
250 -58 262 -94 250 -91 283 -74 58 30 54 60 -30 217 l-70 130 59 64 c145 155
221 353 221 576 -1 338 -186 632 -489 776 -117 56 -169 64 -200 31z"/>
</g>
</svg>
